<?xml version="1.0" encoding="UTF-8"?><svg id="Layer_1" xmlns="http://www.w3.org/2000/svg" viewBox="0 0 186 726.007"><defs><style>.cls-1{fill:none;stroke:#ebc7df;stroke-dasharray:0 0 10 10;stroke-linecap:round;stroke-miterlimit:10;stroke-width:1.5px;}.cls-2{fill:#fff;}.cls-2,.cls-3{stroke-width:0px;}.cls-3{fill:#6a11b0;}</style></defs><path class="cls-1" d="m16.6968,21.849c-2.1057,4.8192-5.1604,12.6639-7.2982,22.6658-9.1176,42.6578,3.8481,99.2717,41.67,123.9471,17.5897,11.4757,38.5909,14.762,53.3467,17.071,30.0715,4.7056,38.7114-1.8302,50.5015,6.4016,21.9014,15.2913,18.1024,56.0068,16.3596,74.6854-1.4401,15.4344-4.4377,47.5623-27.0289,74.6854-31.9816,38.3975-65.0634,20.9402-97.4467,55.4806-25.9283,27.6554-28.463,64.1706-31.3862,106.2823-2.6659,38.4048-5.4054,77.8701,16.7111,114.3041,40.0272,65.9395,129.7649,69.7201,140.5258,70.0148"/><path class="cls-3" d="m16.7318,0h0c9.1938,0,16.6468,7.453,16.6468,16.6468h0c0,9.1938-7.453,16.6468-16.6468,16.6468h0C7.538,33.2937.085,25.8406.085,16.6468H.085C.085,7.453,7.538,0,16.7318,0Z"/><path class="cls-2" d="m16.6968,21.849v-7.3912h-2.6136v-1.365c.7769-.0222,1.415-.2219,1.9144-.5993.4994-.3884.8102-.8656.9322-1.4316h1.7313v10.7872h-1.9643Z"/><path class="cls-3" d="m169.3532,189.1765h0c9.1938,0,16.6468,7.453,16.6468,16.6468h0c0,9.1938-7.453,16.6468-16.6468,16.6468h0c-9.1938,0-16.6468-7.453-16.6468-16.6468h0c0-9.1938,7.453-16.6468,16.6468-16.6468Z"/><path class="cls-2" d="m165.5612,204.1504c-.011-.0777-.0222-.172-.0333-.283-.011-.111-.0166-.2219-.0166-.3329,0-.4661.0832-.9101.2497-1.3317.1776-.4328.4273-.8102.7491-1.132.3329-.3329.7381-.5938,1.2152-.7824.4772-.1998,1.0211-.2996,1.6314-.2996.5993,0,1.132.0944,1.5981.283.4661.1776.8601.4217,1.1819.7325.3329.2996.5826.6547.7491,1.0654.1776.4107.2664.849.2664,1.3151,0,.6992-.1831,1.3317-.5493,1.8977-.3662.566-.8767,1.0488-1.5315,1.4483l-2.0975,1.2985c-.2552.1553-.4828.3329-.6825.5327-.1998.1998-.3385.4328-.4162.6992h5.3436v1.7646h-7.8074c.0111-.4661.0611-.9044.1498-1.3151.0889-.4107.2331-.799.4328-1.1653.1998-.3774.4606-.7269.7824-1.0488.3329-.3329.7325-.6437,1.1986-.9322l1.7812-1.1153c.4884-.2996.838-.6159,1.0488-.9489.222-.3329.3329-.6937.3329-1.082,0-.2219-.0388-.4328-.1165-.6326-.0776-.1998-.1941-.3774-.3496-.5327-.1442-.1553-.3329-.2775-.566-.3662-.2219-.0999-.4828-.1498-.7824-.1498-.6326,0-1.1042.1942-1.415.5826-.3107.3774-.4661.849-.4661,1.415,0,.0887.0056.1831.0166.283.0111.0887.0223.1776.0333.2664l-1.931-.1332Z"/><path class="cls-3" d="m16.6468,508.7686h0c9.1938,0,16.6468,7.453,16.6468,16.6468h0c0,9.1938-7.453,16.6468-16.6468,16.6468h0c-9.1938,0-16.6468-7.453-16.6468-16.6468h0c0-9.1938,7.453-16.6468,16.6468-16.6468Z"/><path class="cls-2" d="m14.7806,524.2418l2.9798-2.6635h-4.9108v-1.7479h7.4911v1.6647l-2.9298,2.5636c.3995.0111.7934.0887,1.1819.2331.3884.1443.7325.3551,1.0321.6326.3107.2775.5549.6214.7325,1.0321.1886.3995.283.8601.283,1.3817,0,.4661-.0944.9101-.283,1.3317-.1776.4217-.4384.799-.7824,1.132-.3441.3218-.7658.5826-1.2652.7824-.4994.1886-1.071.283-1.7146.283-.6216,0-1.1819-.0944-1.6813-.283-.4884-.1886-.9101-.4383-1.2652-.7491-.3441-.3108-.6159-.6714-.8157-1.082-.1998-.4107-.3163-.8435-.3496-1.2985l1.9477-.3995c.011.3108.0721.5993.1831.8656.1109.2552.2607.4772.4495.6659.1998.1776.4272.3163.6825.4162.2552.0999.5327.1498.8323.1498.3329,0,.6214-.0499.8656-.1498.2552-.0999.4716-.2331.6492-.3995.1775-.1665.3107-.3607.3995-.5826.0887-.2219.1332-.455.1332-.6992,0-.3108-.0556-.5771-.1665-.799-.111-.2331-.2608-.4217-.4495-.566-.1776-.1443-.3829-.2497-.6159-.3163-.222-.0666-.4495-.0999-.6825-.0999-.2553,0-.4661.0222-.6326.0666-.1665.0333-.2941.0721-.3829.1165l-.9156-1.4816Z"/><path class="cls-3" d="m168.1621,669.6665h0c9.1938,0,16.6468,7.453,16.6468,16.6468h0c0,9.1938-7.453,16.6468-16.6468,16.6468h0c-9.1938,0-16.6468-7.453-16.6468-16.6468h0c0-9.1938,7.453-16.6468,16.6468-16.6468Z"/><path class="cls-2" d="m163.6788,686.9875l4.5945-6.2592h2.5636v6.6587h1.8145v1.7646h-1.8145v2.3639h-1.9643v-2.3639h-5.1938v-2.1641Zm5.1938-4.2449l-3.396,4.6445h3.396v-4.6445Z"/></svg>