<?xml version="1.0" encoding="utf-8"?>
<!-- Generator: Adobe Illustrator 24.3.0, SVG Export Plug-In . SVG Version: 6.00 Build 0)  -->
<svg version="1.1" id="Layer_1" xmlns="http://www.w3.org/2000/svg" xmlns:xlink="http://www.w3.org/1999/xlink" x="0px" y="0px"
	 viewBox="0 0 318 106" style="enable-background:new 0 0 318 106;" xml:space="preserve">
<style type="text/css">
	.st0{fill:#009BBF;}
	.st1{stroke:#231F20;stroke-miterlimit:10;}
	.st2{fill:none;}
	.st3{fill:#999999;}
	.st4{fill:#00ADEE;}
	.st5{fill:#FF0000;}
</style>
<g>
	<path d="M114.04,64.61H92.17v-8.5h5.47V30.6h-5.47v-8.5h21.86v8.5h-5.47v25.51h5.47V64.61z"/>
	<path class="st0" d="M143.26,64.61l-10.93-6.21V30.6h-8.09l-4.66-8.5h36.44l-4.66,8.5h-8.09V64.61z"/>
	<g>
		<path d="M115.39,24.12l-25.13,0.19v-9l11.52,4.65c0.67,0.27,1.42,0.27,2.09,0l11.52-4.65V24.12z"/>
		<polygon points="87.26,20.49 86.56,20.49 86.56,10.37 87.26,10.64 		"/>
		<circle cx="86.91" cy="22.27" r="1.19"/>
		<path d="M89.1,30.53c-1.01,1.13-3.43,1.11-4.32-0.02l1.29-6.55c0.59,0.24,1.13,0.26,1.62,0L89.1,30.53z"/>
		<path class="st1" d="M102.78,20.95l-18.75-9.14c-0.25-0.12-0.25-0.55,0-0.67L102.78,2l18.86,9.22c0.23,0.11,0.23,0.52,0,0.64
			L102.78,20.95z"/>
	</g>
	<polygon class="st2" points="47.81,29.26 44.19,29.26 44.19,25.84 40.7,25.84 40.7,29.26 40.7,32.43 47.81,32.43 	"/>
	<rect x="54.87" y="25.84" class="st2" width="3.5" height="3.23"/>
	<rect x="40.61" y="35.59" class="st2" width="3.74" height="3.11"/>
	<rect x="26.38" y="39.07" class="st2" width="7.08" height="6.21"/>
	<rect x="33.46" y="32.64" class="st2" width="7.15" height="2.78"/>
	<path class="st2" d="M40.61,48.76v8.52h8.28v-0.05h7.66c0.83,0.02,1.63,0.04,2.41,0.05h0v0c5.68,0.08,9.83-0.04,12.43-0.05
		c0.02,0,0.05,0,0.07,0c0.93,0,1.67-0.27,2.22-0.82c0.55-0.55,0.82-1.28,0.82-2.22v-5.47H60.52c-0.54,0-1.06-0.02-1.57-0.05v0.07
		H40.61z"/>
	<polygon class="st2" points="58.61,45.5 58.95,45.5 61.99,45.5 61.99,42.18 58.95,42.18 58.61,42.18 	"/>
	<polygon class="st2" points="51.19,42.49 49.23,42.49 40.7,42.49 40.7,45.5 50.93,45.5 51.19,45.5 	"/>
	<rect x="37.08" y="39.07" class="st2" width="3.32" height="3.11"/>
	<rect x="51.27" y="58.69" class="st2" width="3.97" height="3.36"/>
	<rect x="28.17" y="47.69" class="st2" width="2.54" height="5.67"/>
	<rect x="36.29" y="45.5" class="st2" width="3.2" height="1.83"/>
	<rect x="31.49" y="48.05" class="st2" width="3.58" height="5.52"/>
	<rect x="36.92" y="50.34" class="st2" width="2.33" height="3.52"/>
	<rect x="33.16" y="22.58" class="st0" width="3.92" height="3.26"/>
	<rect x="37.2" y="62" class="st0" width="3.41" height="2.43"/>
	<polygon class="st3" points="58.95,57.29 58.95,57.29 58.95,57.29 	"/>
	<path class="st0" d="M82.63,42.42c-1.86-1.86-4.78-2.79-8.75-2.79H62.95c-2.43,0-3.64-1.21-3.64-3.64v-1.21
		c0-2.43,1.21-3.64,3.64-3.64h18.89v-8.5l-23.49-0.05c-0.54,0,0,0-0.46,0c-3.46,0-4.95,1.26-6.62,2.93
		c-1.92,1.92-2.88,5.01-2.88,9.26v1.82c0,2.31,0.29,4.28,0.86,5.9h1.96v3.01h-0.26c0.11,0.12,0.21,0.24,0.33,0.35
		c1.68,1.68,4.24,2.62,7.69,2.84c0.5,0.03,1.03,0.05,1.57,0.05h13.97v5.47c0,0.93-0.27,1.67-0.82,2.22
		c-0.55,0.55-1.29,0.82-2.22,0.82c-0.02,0-0.05,0-0.07,0c-2.6,0-6.75,0.13-12.43,0.05c0,0,0,0,0,0H48.89v7.85
		c5.42,0.15,6.36,0.18,10.07,0.22c0.78,0.01,1.69,0.02,2.78,0.03l5.59,0.24c1.54,0.05,3.02,0.09,4.46,0.11
		c0.71,0.01,1.42,0.02,2.1,0.02c3.97,0,6.88-0.93,8.75-2.79c1.86-1.86,2.79-4.78,2.79-8.75v-3.04
		C85.42,47.2,84.49,44.28,82.63,42.42z M58.37,29.07h-3.5v-3.23h3.5V29.07z M61.99,45.5h-3.03h-0.34v-3.32h0.34h3.03V45.5z
		 M55.24,62.06h-3.97v-3.36h3.97V62.06z"/>
	<path class="st4" d="M48.89,57.24v0.05h10.07c-0.77-0.01-1.58-0.03-2.41-0.05H48.89z"/>
	<rect x="36.92" y="50.34" class="st2" width="2.33" height="3.52"/>
	<rect x="31.49" y="48.05" class="st2" width="3.58" height="5.52"/>
	<rect x="36.29" y="45.5" class="st2" width="3.2" height="1.83"/>
	<rect x="26.38" y="39.07" class="st2" width="7.08" height="6.21"/>
	<rect x="28.17" y="47.69" class="st2" width="2.54" height="5.67"/>
	<rect x="37.08" y="39.07" class="st2" width="3.32" height="3.11"/>
	<rect x="33.46" y="32.64" class="st2" width="7.15" height="2.78"/>
	<polygon class="st2" points="44.19,25.84 40.7,25.84 40.7,29.26 40.7,32.43 47.81,32.43 47.81,29.26 44.19,29.26 	"/>
	<rect x="40.61" y="35.59" class="st2" width="3.74" height="3.11"/>
	<path class="st0" d="M58.95,22.67v-0.09H47.81v3.2h-3.47v-3.2h-4.1v3.26h-3.17v3.23h-3.92v3.35h-3.14v-9.85h-5.65v2.83h1.79v3.67
		h-1.79v3.23c1.24,0,4.27,0,5.55,0v3.46H26.4v3h-2.03v19.91h2.01v-3.26h3.56v3.26h7.3v-3.26h3.15v3.26h7.18V62h-3.62v3.35h15
		c-3.7-0.04-4.65-0.07-10.07-0.22v-7.85h-8.28v-8.52h18.35v-0.07c-3.69-0.26-6.22-1.19-8.02-3.19H40.7v-3.01h8.53
		c-0.77-1.97-0.92-5.17-0.85-7.72C48.44,26.94,51.33,23.18,58.95,22.67z M26.38,39.07h7.08v6.21h-7.08V39.07z M30.71,53.36h-2.54
		v-5.67h2.54V53.36z M35.07,53.57h-3.58v-5.52h3.58V53.57z M39.25,53.86h-2.33v-3.52h2.33V53.86z M39.49,47.34h-3.2V45.5h3.2V47.34z
		 M40.39,42.18h-3.32v-3.11h3.32V42.18z M33.46,35.42v-2.78h7.15v2.78H33.46z M44.34,38.71h-3.74v-3.11h3.74V38.71z M47.81,32.43
		H40.7v-3.17v-3.42h3.5v3.42h3.62V32.43z"/>
	<rect x="29.92" y="62" class="st0" width="3.93" height="3.35"/>
	<rect x="29.92" y="58.67" class="st4" width="0.03" height="0.09"/>
	<path class="st0" d="M168.09,64.68v-5.9c-3.71,1.94-7.28,3.91-10.69,5.9H168.09z"/>
	<path class="st0" d="M183.27,64.68h10.93V46.49c-3.71,1.59-7.36,3.21-10.93,4.86V64.68z"/>
	<path class="st0" d="M168.09,49.29h15.18v0.32c3.38-1.58,7.02-3.21,10.93-4.89V26.87l-5.33-4.77l-5.6,4.77v14.85h-15.18V26.87
		l-5.33-4.77l-5.6,4.77v36.61c3.07-1.91,6.69-4.01,10.93-6.29V49.29z"/>
	<path d="M205.41,25.56l-5.16-3.58l-4.51,3.58v18.5c3.06-1.3,6.28-2.63,9.67-3.98V25.56z"/>
	<path d="M229.68,21.98l-4.64,3.58v7.13c1.53-0.54,3.08-1.09,4.66-1.64c1.61-0.56,3.24-1.12,4.9-1.68v-3.81L229.68,21.98z"/>
	<path d="M229.7,32.64c-1.55,0.56-3.11,1.12-4.66,1.69v17.17c0,1.54-0.23,2.91-0.68,4.12c-0.45,1.21-1.1,2.23-1.93,3.05
		c-0.83,0.83-1.85,1.45-3.05,1.88c-0.55,0.2-1.14,0.35-1.75,0.45c-0.73,0.13-1.5,0.19-2.33,0.19c-1.5,0-2.85-0.21-4.06-0.63
		c-1.21-0.42-2.26-1.05-3.12-1.88c-0.87-0.84-1.54-1.89-2-3.17c-0.47-1.28-0.7-2.79-0.7-4.53v-9.14c-3.25,1.31-6.48,2.64-9.67,3.99
		v5.93c0,2.81,0.44,5.26,1.31,7.35c0.87,2.09,2.13,3.84,3.77,5.24c1.64,1.4,3.65,2.45,6.03,3.14c2.38,0.69,5.06,1.04,8.05,1.04
		c3.19,0,6-0.39,8.46-1.15c2.45-0.77,4.51-1.89,6.18-3.36c1.67-1.47,2.93-3.27,3.79-5.4c0.86-2.13,1.29-4.54,1.29-7.23V30.9
		C232.97,31.47,231.34,32.05,229.7,32.64z"/>
	<path class="st2" d="M259.24,47.61h-12.15v8.5h12.15c2.43,0,3.64-1.21,3.64-3.64v-1.21C262.88,48.82,261.67,47.61,259.24,47.61z"/>
	<path class="st2" d="M261.06,35.46v-1.21c0-2.43-1.21-3.64-3.64-3.64h-10.32v8.5h10.32C259.85,39.1,261.06,37.89,261.06,35.46z"/>
	<path class="st0" d="M266.53,42.14c1.54-0.61,2.83-1.67,3.89-3.19c1.05-1.52,1.58-3.49,1.58-5.92c0-3.68-0.93-6.43-2.79-8.23
		c-1.78-1.72-4.53-2.62-8.23-2.7c-7.99,2.54-16.34,5.3-24.81,8.25v34.26h26.11c3.97,0,6.88-0.93,8.75-2.79
		c1.86-1.86,2.79-4.78,2.79-8.75c0-1.66-0.2-3.12-0.61-4.37C272.03,45.22,269.81,43.03,266.53,42.14z M247.09,30.6h10.32
		c2.43,0,3.64,1.21,3.64,3.64v1.21c0,2.43-1.21,3.64-3.64,3.64h-10.32V30.6z M262.88,52.46c0,2.43-1.21,3.64-3.64,3.64h-12.15v-8.5
		h12.15c2.43,0,3.64,1.21,3.64,3.64V52.46z"/>
	<path class="st0" d="M238.88,22.1l-2.72,2.72v4.02c6.57-2.21,13.56-4.46,21.02-6.74H238.88z"/>
	<path class="st2" d="M279.94,8.85h7.56c1.19,0,2.1,0.32,2.74,0.96c0.61,0.61,0.93,1.47,0.96,2.58c0.54-0.14,1.09-0.29,1.64-0.43
		V9.29c0-0.59-0.2-1.09-0.59-1.48c-0.4-0.4-0.89-0.59-1.48-0.59h-10.97c-0.59,0-1.09,0.2-1.48,0.59c-0.4,0.4-0.59,0.89-0.59,1.48
		v6.79c0.74-0.21,1.48-0.41,2.22-0.62V8.85z"/>
	<path class="st2" d="M287.05,13.15v-0.59c0-0.69-0.35-1.04-1.04-1.04h-1.93v2.67h0.47c0.81-0.22,1.63-0.44,2.45-0.67
		C287.03,13.41,287.05,13.29,287.05,13.15z"/>
	<path class="st2" d="M290.63,15.12c-0.39,0.54-0.84,0.92-1.35,1.14l1.93,3.56h-4.3l-1.63-2.97h-1.19v2.97h-4.15v-3.54
		c-0.74,0.22-1.48,0.44-2.22,0.66v2.43c0,0.59,0.2,1.09,0.59,1.48c0.4,0.4,0.89,0.59,1.48,0.59h10.97c0.59,0,1.09-0.2,1.48-0.59
		c0.4-0.4,0.59-0.89,0.59-1.48v-6.85c-0.54,0.15-1.08,0.31-1.63,0.47C291.18,13.9,290.99,14.61,290.63,15.12z"/>
	<path d="M287.5,8.85h-7.56v6.61c1.53-0.42,3.07-0.85,4.62-1.28h-0.47v-2.67h1.93c0.69,0,1.04,0.35,1.04,1.04v0.59
		c0,0.14-0.02,0.26-0.05,0.37c1.38-0.38,2.78-0.75,4.19-1.13c-0.03-1.11-0.35-1.97-0.96-2.58C289.6,9.17,288.68,8.85,287.5,8.85z"/>
	<path d="M292.83,12.53v6.85c0,0.59-0.2,1.09-0.59,1.48c-0.4,0.4-0.89,0.59-1.48,0.59h-10.97c-0.59,0-1.09-0.2-1.48-0.59
		c-0.4-0.4-0.59-0.89-0.59-1.48v-2.43c-1.46,0.44-2.95,0.89-4.45,1.34v0.2c0,2.1,0.56,3.71,1.69,4.83c1.13,1.13,2.74,1.69,4.83,1.69
		h10.97c2.1,0,3.71-0.56,4.83-1.69c1.13-1.13,1.69-2.74,1.69-4.83v-7.21C295.84,11.68,294.36,12.1,292.83,12.53z"/>
	<path d="M279.94,19.82h4.15v-2.97h1.19l1.63,2.97h4.3l-1.93-3.56c0.51-0.22,0.96-0.6,1.35-1.14c0.37-0.52,0.56-1.23,0.57-2.12
		c-3.57,1.02-7.34,2.12-11.26,3.28V19.82z"/>
	<path d="M277.71,9.29c0-0.59,0.2-1.09,0.59-1.48c0.4-0.4,0.89-0.59,1.48-0.59h10.97c0.59,0,1.09,0.2,1.48,0.59
		c0.4,0.4,0.59,0.89,0.59,1.48v2.67c1.47-0.39,2.95-0.78,4.45-1.17v-0.61c0-2.1-0.56-3.71-1.69-4.83c-1.13-1.13-2.74-1.69-4.83-1.69
		h-10.97c-2.1,0-3.71,0.56-4.83,1.69c-1.13,1.13-1.69,2.74-1.69,4.83v7.16c1.47-0.42,2.95-0.84,4.45-1.26V9.29z"/>
</g>
<g>
	<path class="st5" d="M31.87,85.59c-0.07-0.24-0.17-0.46-0.29-0.65c-0.12-0.19-0.28-0.35-0.46-0.48c-0.18-0.13-0.38-0.23-0.61-0.3
		s-0.48-0.1-0.76-0.1c-0.52,0-0.97,0.13-1.36,0.39c-0.39,0.26-0.69,0.64-0.91,1.13c-0.22,0.5-0.33,1.1-0.33,1.81
		c0,0.71,0.11,1.32,0.32,1.82c0.21,0.5,0.52,0.88,0.91,1.14c0.39,0.26,0.85,0.39,1.38,0.39c0.48,0,0.9-0.09,1.24-0.26
		c0.34-0.17,0.61-0.42,0.79-0.74c0.18-0.32,0.27-0.7,0.27-1.13l0.43,0.06h-2.6v-1.63h4.22v1.29c0,0.9-0.19,1.67-0.56,2.31
		c-0.37,0.64-0.89,1.14-1.55,1.49s-1.41,0.52-2.26,0.52c-0.95,0-1.78-0.21-2.49-0.64c-0.72-0.42-1.27-1.03-1.67-1.81
		c-0.4-0.78-0.6-1.72-0.6-2.79c0-0.83,0.12-1.57,0.36-2.22c0.24-0.65,0.57-1.2,1-1.66c0.43-0.45,0.93-0.8,1.5-1.03
		c0.57-0.24,1.19-0.35,1.86-0.35c0.57,0,1.1,0.08,1.6,0.25c0.49,0.17,0.93,0.41,1.31,0.71c0.38,0.31,0.69,0.67,0.94,1.09
		c0.24,0.42,0.4,0.88,0.47,1.39H31.87z"/>
	<path class="st5" d="M45,87.39c0,1.12-0.21,2.06-0.62,2.85c-0.42,0.78-0.98,1.38-1.69,1.79s-1.52,0.62-2.41,0.62
		c-0.9,0-1.7-0.21-2.41-0.62c-0.71-0.41-1.28-1.01-1.69-1.79s-0.62-1.73-0.62-2.84c0-1.12,0.21-2.06,0.62-2.85s0.98-1.38,1.69-1.79
		s1.52-0.62,2.41-0.62c0.89,0,1.69,0.21,2.41,0.62s1.28,1.01,1.69,1.79C44.79,85.33,45,86.28,45,87.39z M42.84,87.39
		c0-0.72-0.11-1.33-0.32-1.83c-0.21-0.5-0.51-0.87-0.89-1.13c-0.38-0.26-0.83-0.38-1.35-0.38c-0.52,0-0.97,0.13-1.35,0.38
		c-0.38,0.26-0.68,0.63-0.89,1.13c-0.21,0.5-0.32,1.1-0.32,1.83s0.11,1.33,0.32,1.83c0.21,0.5,0.51,0.87,0.89,1.13
		c0.38,0.26,0.83,0.38,1.35,0.38c0.52,0,0.96-0.13,1.35-0.38c0.38-0.26,0.68-0.63,0.89-1.13C42.73,88.72,42.84,88.12,42.84,87.39z"
		/>
	<path class="st5" d="M47.83,82.28l2.44,7.77h0.09l2.44-7.77h2.36l-3.48,10.22h-2.75l-3.48-10.22H47.83z"/>
	<path class="st5" d="M56,84.06v-1.78h8.28v1.78h-3.09v8.44h-2.11v-8.44H56z"/>
	<path class="st5" d="M66.36,92.64c-0.33,0-0.6-0.12-0.83-0.35c-0.23-0.23-0.35-0.52-0.35-0.85c0-0.33,0.12-0.61,0.35-0.84
		c0.23-0.23,0.51-0.35,0.83-0.35c0.31,0,0.59,0.12,0.83,0.35c0.24,0.23,0.35,0.51,0.35,0.84c0,0.22-0.06,0.42-0.17,0.6
		s-0.25,0.33-0.43,0.43C66.77,92.58,66.57,92.64,66.36,92.64z"/>
	<path class="st5" d="M72.04,92.51V82.28h3.98c0.76,0,1.41,0.14,1.95,0.41c0.54,0.27,0.95,0.66,1.24,1.16
		c0.28,0.5,0.43,1.09,0.43,1.76c0,0.68-0.14,1.26-0.43,1.75c-0.29,0.49-0.71,0.86-1.25,1.12c-0.55,0.26-1.21,0.39-1.98,0.39H73.3
		v-1.74h2.32c0.41,0,0.75-0.06,1.01-0.17c0.27-0.11,0.47-0.28,0.6-0.51s0.2-0.51,0.2-0.84c0-0.34-0.07-0.63-0.2-0.86
		c-0.13-0.23-0.33-0.41-0.61-0.53c-0.27-0.12-0.61-0.18-1.02-0.18h-1.44v8.46H72.04z M77.49,87.85L80,92.51h-2.35l-2.45-4.65H77.49z
		"/>
	<path class="st5" d="M81.14,92.51V82.28h6.8v1.78h-4.66v2.44h4.31v1.78h-4.31v2.44h4.68v1.78H81.14z"/>
	<path class="st5" d="M96.32,85.59c-0.07-0.24-0.17-0.46-0.29-0.65c-0.12-0.19-0.28-0.35-0.46-0.48c-0.18-0.13-0.38-0.23-0.61-0.3
		s-0.48-0.1-0.76-0.1c-0.52,0-0.97,0.13-1.36,0.39c-0.39,0.26-0.69,0.64-0.91,1.13c-0.22,0.5-0.33,1.1-0.33,1.81
		c0,0.71,0.11,1.32,0.32,1.82c0.21,0.5,0.52,0.88,0.91,1.14c0.39,0.26,0.85,0.39,1.38,0.39c0.48,0,0.9-0.09,1.24-0.26
		c0.34-0.17,0.61-0.42,0.79-0.74c0.18-0.32,0.27-0.7,0.27-1.13l0.43,0.06h-2.6v-1.63h4.22v1.29c0,0.9-0.19,1.67-0.56,2.31
		c-0.37,0.64-0.89,1.14-1.55,1.49s-1.41,0.52-2.26,0.52c-0.95,0-1.78-0.21-2.49-0.64c-0.72-0.42-1.27-1.03-1.67-1.81
		c-0.4-0.78-0.6-1.72-0.6-2.79c0-0.83,0.12-1.57,0.36-2.22c0.24-0.65,0.57-1.2,1-1.66c0.43-0.45,0.93-0.8,1.5-1.03
		c0.57-0.24,1.19-0.35,1.86-0.35c0.57,0,1.1,0.08,1.6,0.25c0.49,0.17,0.93,0.41,1.31,0.71c0.38,0.31,0.69,0.67,0.94,1.09
		c0.24,0.42,0.4,0.88,0.47,1.39H96.32z"/>
	<path class="st5" d="M103.76,92.51h-3.58V82.28h3.6c1.01,0,1.89,0.2,2.62,0.61c0.73,0.41,1.3,0.99,1.69,1.75
		c0.4,0.76,0.59,1.67,0.59,2.74c0,1.06-0.2,1.98-0.59,2.75c-0.4,0.77-0.96,1.35-1.7,1.76C105.67,92.3,104.78,92.51,103.76,92.51z
		 M102.32,90.65h1.35c0.63,0,1.16-0.11,1.59-0.34c0.43-0.23,0.76-0.58,0.98-1.06c0.22-0.48,0.33-1.1,0.33-1.86
		c0-0.76-0.11-1.37-0.33-1.85c-0.22-0.48-0.54-0.83-0.97-1.06s-0.96-0.34-1.59-0.34h-1.36V90.65z"/>
	<path class="st5" d="M110.83,92.64c-0.33,0-0.6-0.12-0.83-0.35c-0.23-0.23-0.35-0.52-0.35-0.85c0-0.33,0.12-0.61,0.35-0.84
		c0.23-0.23,0.51-0.35,0.83-0.35c0.31,0,0.59,0.12,0.83,0.35c0.24,0.23,0.35,0.51,0.35,0.84c0,0.22-0.06,0.42-0.17,0.6
		s-0.25,0.33-0.43,0.43C111.24,92.58,111.04,92.64,110.83,92.64z"/>
	<path d="M119.22,78.99V95.8h-1.99V78.99H119.22z"/>
	<path d="M127.04,82.28v10.22h-2.13V82.28H127.04z"/>
	<path d="M134.27,85.22c-0.04-0.4-0.21-0.72-0.51-0.94c-0.3-0.22-0.7-0.33-1.22-0.33c-0.35,0-0.64,0.05-0.88,0.15
		c-0.24,0.1-0.42,0.23-0.55,0.41s-0.19,0.37-0.19,0.59c-0.01,0.18,0.03,0.34,0.12,0.48c0.08,0.14,0.2,0.25,0.35,0.35
		c0.15,0.1,0.32,0.18,0.51,0.25c0.19,0.07,0.4,0.13,0.62,0.18l0.91,0.22c0.44,0.1,0.84,0.23,1.21,0.4c0.37,0.17,0.69,0.37,0.96,0.61
		c0.27,0.24,0.48,0.53,0.63,0.86c0.15,0.33,0.23,0.71,0.23,1.13c0,0.63-0.16,1.17-0.47,1.62c-0.31,0.46-0.76,0.81-1.34,1.06
		c-0.58,0.25-1.28,0.38-2.1,0.38c-0.81,0-1.52-0.13-2.12-0.38s-1.07-0.63-1.41-1.13c-0.34-0.5-0.51-1.11-0.53-1.85h2.06
		c0.02,0.34,0.12,0.63,0.29,0.86c0.17,0.23,0.4,0.4,0.69,0.51s0.62,0.17,0.99,0.17c0.36,0,0.68-0.05,0.94-0.16s0.48-0.25,0.62-0.44
		c0.15-0.19,0.22-0.41,0.22-0.65c0-0.23-0.07-0.42-0.2-0.58c-0.13-0.16-0.33-0.29-0.58-0.4c-0.25-0.11-0.57-0.21-0.93-0.3l-1.1-0.28
		c-0.85-0.21-1.52-0.54-2.01-0.98c-0.49-0.45-0.74-1.05-0.73-1.8c0-0.62,0.16-1.16,0.49-1.62c0.33-0.46,0.78-0.82,1.36-1.08
		c0.58-0.26,1.23-0.39,1.97-0.39c0.75,0,1.4,0.13,1.96,0.39c0.56,0.26,1,0.62,1.31,1.08c0.31,0.46,0.47,1,0.48,1.61H134.27z"/>
	<path d="M147.14,87.39c0,1.12-0.21,2.06-0.62,2.85c-0.42,0.78-0.98,1.38-1.69,1.79s-1.52,0.62-2.41,0.62c-0.9,0-1.7-0.21-2.41-0.62
		c-0.71-0.41-1.28-1.01-1.69-1.79s-0.62-1.73-0.62-2.84c0-1.12,0.21-2.06,0.62-2.85s0.98-1.38,1.69-1.79s1.52-0.62,2.41-0.62
		c0.89,0,1.69,0.21,2.41,0.62s1.28,1.01,1.69,1.79C146.94,85.33,147.14,86.28,147.14,87.39z M144.98,87.39
		c0-0.72-0.11-1.33-0.32-1.83c-0.21-0.5-0.51-0.87-0.89-1.13c-0.38-0.26-0.83-0.38-1.35-0.38c-0.52,0-0.97,0.13-1.35,0.38
		c-0.38,0.26-0.68,0.63-0.89,1.13c-0.21,0.5-0.32,1.1-0.32,1.83s0.11,1.33,0.32,1.83c0.21,0.5,0.51,0.87,0.89,1.13
		c0.38,0.26,0.83,0.38,1.35,0.38c0.52,0,0.96-0.13,1.35-0.38c0.38-0.26,0.68-0.63,0.89-1.13C144.88,88.72,144.98,88.12,144.98,87.39
		z"/>
	<path d="M156.61,86.55v1.69h-4.6v-1.69H156.61z"/>
	<path d="M165.24,82.14c0.52,0,1.02,0.09,1.5,0.26c0.48,0.18,0.91,0.46,1.29,0.84c0.38,0.39,0.68,0.9,0.9,1.54
		c0.22,0.64,0.33,1.42,0.34,2.34c0,0.87-0.1,1.64-0.29,2.32c-0.19,0.68-0.47,1.26-0.83,1.73c-0.36,0.48-0.79,0.84-1.29,1.09
		c-0.5,0.25-1.07,0.37-1.69,0.37c-0.67,0-1.27-0.13-1.78-0.4s-0.93-0.63-1.24-1.08c-0.31-0.46-0.5-0.97-0.57-1.54h2.1
		c0.08,0.37,0.25,0.66,0.52,0.87c0.26,0.21,0.59,0.31,0.97,0.31c0.66,0,1.16-0.29,1.5-0.87c0.34-0.58,0.51-1.38,0.52-2.39h-0.07
		c-0.15,0.3-0.36,0.56-0.61,0.77s-0.55,0.38-0.88,0.5c-0.33,0.12-0.68,0.17-1.05,0.17c-0.59,0-1.12-0.14-1.59-0.42
		s-0.83-0.67-1.1-1.17c-0.27-0.5-0.4-1.06-0.4-1.7c0-0.69,0.15-1.3,0.47-1.83s0.76-0.96,1.32-1.26S164.49,82.14,165.24,82.14z
		 M165.25,83.84c-0.33,0-0.62,0.08-0.88,0.24c-0.26,0.16-0.46,0.38-0.61,0.64c-0.15,0.27-0.22,0.57-0.22,0.9
		c0,0.34,0.07,0.64,0.22,0.91s0.35,0.48,0.6,0.64c0.25,0.16,0.54,0.24,0.87,0.24c0.25,0,0.47-0.05,0.69-0.14
		c0.21-0.09,0.39-0.22,0.55-0.39s0.28-0.36,0.37-0.57c0.09-0.22,0.13-0.45,0.13-0.69c0-0.32-0.08-0.62-0.23-0.89
		c-0.15-0.27-0.35-0.49-0.61-0.65S165.58,83.84,165.25,83.84z"/>
	<path d="M174.7,92.73c-0.85,0-1.57-0.21-2.18-0.63c-0.61-0.42-1.08-1.03-1.4-1.82c-0.33-0.8-0.49-1.75-0.48-2.87
		c0-1.12,0.16-2.07,0.49-2.85c0.33-0.79,0.79-1.38,1.4-1.79s1.33-0.62,2.18-0.62s1.57,0.21,2.18,0.62c0.61,0.41,1.08,1.01,1.41,1.79
		c0.33,0.78,0.49,1.73,0.49,2.85c0,1.12-0.16,2.08-0.49,2.88c-0.33,0.79-0.79,1.4-1.4,1.82C176.27,92.52,175.55,92.73,174.7,92.73z
		 M174.7,90.94c0.58,0,1.04-0.29,1.38-0.88s0.52-1.47,0.51-2.65c0-0.78-0.08-1.42-0.23-1.94c-0.16-0.52-0.38-0.9-0.66-1.16
		c-0.28-0.26-0.62-0.39-1-0.39c-0.57,0-1.03,0.29-1.38,0.87c-0.34,0.58-0.52,1.46-0.52,2.62c0,0.79,0.08,1.44,0.23,1.96
		c0.16,0.52,0.38,0.92,0.66,1.18C173.98,90.81,174.32,90.94,174.7,90.94z"/>
	<path d="M184.24,92.73c-0.85,0-1.57-0.21-2.18-0.63c-0.61-0.42-1.08-1.03-1.4-1.82c-0.33-0.8-0.49-1.75-0.48-2.87
		c0-1.12,0.16-2.07,0.49-2.85c0.33-0.79,0.79-1.38,1.4-1.79s1.33-0.62,2.18-0.62s1.57,0.21,2.18,0.62c0.61,0.41,1.08,1.01,1.41,1.79
		c0.33,0.78,0.49,1.73,0.49,2.85c0,1.12-0.16,2.08-0.49,2.88c-0.33,0.79-0.79,1.4-1.4,1.82C185.82,92.52,185.09,92.73,184.24,92.73z
		 M184.24,90.94c0.58,0,1.04-0.29,1.38-0.88s0.52-1.47,0.51-2.65c0-0.78-0.08-1.42-0.23-1.94c-0.16-0.52-0.38-0.9-0.66-1.16
		s-0.62-0.39-1-0.39c-0.57,0-1.03,0.29-1.38,0.87c-0.34,0.58-0.52,1.46-0.52,2.62c0,0.79,0.08,1.44,0.23,1.96
		c0.16,0.52,0.38,0.92,0.66,1.18C183.52,90.81,183.86,90.94,184.24,90.94z"/>
	<path d="M194.22,82.28v10.22h-2.13v-8.17h-0.06l-2.31,1.47v-1.92l2.5-1.6H194.22z"/>
	<path d="M197.86,86.3c-0.33,0-0.6-0.12-0.83-0.35c-0.23-0.23-0.35-0.52-0.35-0.85c0-0.33,0.12-0.6,0.35-0.84s0.51-0.35,0.83-0.35
		c0.32,0,0.59,0.12,0.83,0.35s0.35,0.51,0.35,0.84c0,0.22-0.05,0.43-0.17,0.61c-0.11,0.18-0.25,0.33-0.43,0.43
		C198.27,86.25,198.08,86.3,197.86,86.3z M197.86,91.32c-0.33,0-0.6-0.12-0.83-0.35c-0.23-0.23-0.35-0.52-0.35-0.85
		c0-0.33,0.12-0.61,0.35-0.84c0.23-0.23,0.51-0.35,0.83-0.35c0.32,0,0.59,0.12,0.83,0.35c0.24,0.23,0.35,0.51,0.35,0.84
		c0,0.22-0.05,0.42-0.17,0.6c-0.11,0.18-0.25,0.33-0.43,0.43C198.27,91.26,198.08,91.32,197.86,91.32z"/>
	<path d="M200.74,92.51v-1.56l3.59-3.37c0.31-0.3,0.56-0.57,0.77-0.81c0.21-0.24,0.37-0.48,0.48-0.71c0.11-0.23,0.16-0.48,0.16-0.75
		c0-0.3-0.07-0.56-0.2-0.78c-0.13-0.22-0.32-0.39-0.55-0.5c-0.23-0.12-0.5-0.18-0.79-0.18c-0.31,0-0.58,0.06-0.81,0.19
		c-0.23,0.13-0.41,0.31-0.53,0.54s-0.19,0.52-0.19,0.84h-2.02c0-0.67,0.15-1.25,0.45-1.74c0.3-0.49,0.72-0.87,1.26-1.14
		s1.16-0.4,1.86-0.4c0.72,0,1.35,0.13,1.89,0.39c0.54,0.26,0.95,0.62,1.25,1.07c0.3,0.46,0.45,0.98,0.45,1.57
		c0,0.39-0.08,0.77-0.22,1.14c-0.15,0.38-0.41,0.79-0.79,1.25c-0.38,0.46-0.92,1.01-1.61,1.65l-1.47,1.46v0.07h4.23v1.77H200.74z"/>
	<path d="M213.43,92.73c-0.85,0-1.58-0.21-2.18-0.63c-0.61-0.42-1.08-1.03-1.4-1.82c-0.33-0.8-0.49-1.75-0.49-2.87
		c0-1.12,0.16-2.07,0.49-2.85c0.33-0.79,0.79-1.38,1.4-1.79c0.61-0.41,1.33-0.62,2.18-0.62s1.57,0.21,2.18,0.62
		c0.61,0.41,1.08,1.01,1.41,1.79c0.33,0.78,0.49,1.73,0.49,2.85c0,1.12-0.16,2.08-0.49,2.88c-0.33,0.79-0.79,1.4-1.4,1.82
		C215.01,92.52,214.28,92.73,213.43,92.73z M213.43,90.94c0.58,0,1.04-0.29,1.38-0.88s0.52-1.47,0.51-2.65
		c0-0.78-0.08-1.42-0.23-1.94c-0.16-0.52-0.38-0.9-0.66-1.16s-0.62-0.39-1-0.39c-0.57,0-1.03,0.29-1.38,0.87
		c-0.34,0.58-0.52,1.46-0.52,2.62c0,0.79,0.08,1.44,0.23,1.96c0.16,0.52,0.38,0.92,0.66,1.18
		C212.71,90.81,213.05,90.94,213.43,90.94z"/>
	<path d="M223.41,82.28v10.22h-2.13v-8.17h-0.06l-2.31,1.47v-1.92l2.5-1.6H223.41z"/>
	<path d="M229.49,92.65c-0.7,0-1.32-0.13-1.86-0.39c-0.54-0.26-0.97-0.62-1.29-1.07s-0.48-0.98-0.5-1.57h2.07
		c0.02,0.4,0.19,0.72,0.49,0.96c0.31,0.25,0.67,0.37,1.09,0.37c0.33,0,0.63-0.08,0.89-0.23s0.46-0.36,0.61-0.63
		c0.15-0.27,0.22-0.58,0.22-0.94c0-0.36-0.08-0.67-0.22-0.95c-0.15-0.27-0.36-0.49-0.62-0.64s-0.56-0.23-0.9-0.24
		c-0.3,0-0.58,0.06-0.86,0.19s-0.49,0.29-0.65,0.5l-1.9-0.34l0.48-5.39h6.17v1.77h-4.41l-0.26,2.56h0.06
		c0.18-0.25,0.44-0.46,0.8-0.63c0.36-0.17,0.76-0.25,1.2-0.25c0.61,0,1.15,0.15,1.62,0.43c0.48,0.29,0.85,0.69,1.13,1.19
		c0.28,0.5,0.41,1.08,0.41,1.74c0,0.69-0.15,1.3-0.47,1.83c-0.32,0.53-0.76,0.95-1.33,1.26C230.9,92.49,230.24,92.65,229.49,92.65z"
		/>
	<path d="M246.92,85.86h-2.16c-0.04-0.28-0.12-0.53-0.24-0.76c-0.12-0.22-0.28-0.41-0.47-0.57c-0.19-0.16-0.41-0.28-0.66-0.36
		c-0.25-0.08-0.52-0.12-0.8-0.12c-0.52,0-0.98,0.13-1.36,0.39c-0.39,0.26-0.69,0.64-0.9,1.14c-0.21,0.5-0.32,1.1-0.32,1.81
		c0,0.73,0.11,1.34,0.32,1.84s0.52,0.87,0.9,1.12c0.39,0.25,0.84,0.38,1.34,0.38c0.29,0,0.55-0.04,0.79-0.11
		c0.25-0.08,0.46-0.19,0.65-0.34c0.19-0.15,0.35-0.33,0.48-0.54c0.13-0.21,0.21-0.46,0.26-0.73l2.16,0.01
		c-0.06,0.47-0.19,0.92-0.42,1.36c-0.22,0.43-0.52,0.82-0.89,1.16c-0.37,0.34-0.82,0.61-1.33,0.81s-1.09,0.3-1.74,0.3
		c-0.9,0-1.7-0.21-2.41-0.62c-0.71-0.41-1.27-1.01-1.67-1.79c-0.41-0.78-0.61-1.73-0.61-2.84c0-1.12,0.21-2.06,0.62-2.85
		c0.41-0.78,0.98-1.38,1.68-1.79s1.51-0.62,2.39-0.62c0.58,0,1.13,0.08,1.63,0.25c0.5,0.17,0.94,0.41,1.33,0.73
		c0.39,0.32,0.7,0.71,0.95,1.17C246.69,84.74,246.85,85.27,246.92,85.86z"/>
	<path d="M251.86,92.66c-0.78,0-1.45-0.16-2.01-0.48s-0.99-0.78-1.29-1.37c-0.3-0.59-0.45-1.29-0.45-2.1c0-0.79,0.15-1.48,0.45-2.08
		c0.3-0.6,0.73-1.06,1.28-1.39c0.55-0.33,1.2-0.5,1.94-0.5c0.5,0,0.96,0.08,1.4,0.24s0.81,0.4,1.13,0.73
		c0.32,0.32,0.58,0.73,0.76,1.22c0.18,0.49,0.27,1.06,0.27,1.71v0.58h-6.39V87.9h4.41c0-0.31-0.07-0.58-0.2-0.81
		c-0.13-0.24-0.31-0.42-0.54-0.56s-0.5-0.2-0.8-0.2c-0.32,0-0.6,0.07-0.84,0.22c-0.25,0.15-0.44,0.35-0.57,0.59
		s-0.21,0.52-0.21,0.83v1.25c0,0.38,0.07,0.71,0.21,0.98s0.34,0.49,0.59,0.64c0.26,0.15,0.56,0.22,0.91,0.22
		c0.23,0,0.45-0.03,0.64-0.1c0.19-0.07,0.36-0.17,0.5-0.3c0.14-0.13,0.24-0.3,0.32-0.49l1.94,0.13c-0.1,0.47-0.3,0.88-0.6,1.24
		c-0.3,0.35-0.69,0.62-1.17,0.82C253.03,92.56,252.48,92.66,251.86,92.66z"/>
	<path d="M256.7,92.51v-7.67h2.03v1.34h0.08c0.14-0.48,0.37-0.84,0.69-1.08c0.33-0.25,0.7-0.37,1.12-0.37
		c0.11,0,0.22,0.01,0.34,0.02c0.12,0.01,0.23,0.03,0.32,0.06v1.89c-0.1-0.03-0.24-0.06-0.41-0.08s-0.33-0.04-0.48-0.04
		c-0.31,0-0.58,0.07-0.82,0.2c-0.24,0.13-0.43,0.32-0.57,0.56c-0.14,0.24-0.21,0.52-0.21,0.83v4.34H256.7z"/>
	<path d="M266.77,84.84v1.6h-4.55v-1.6H266.77z M263.25,83h2.1v7.15c0,0.2,0.03,0.35,0.09,0.46c0.06,0.11,0.14,0.18,0.25,0.23
		c0.11,0.04,0.23,0.07,0.37,0.07c0.1,0,0.2-0.01,0.29-0.03c0.1-0.02,0.17-0.03,0.23-0.04l0.33,1.58c-0.11,0.03-0.25,0.07-0.44,0.12
		s-0.42,0.07-0.69,0.08c-0.5,0.02-0.95-0.05-1.33-0.2c-0.38-0.16-0.67-0.4-0.88-0.73c-0.21-0.33-0.31-0.75-0.31-1.25V83z"/>
	<path d="M269.18,83.85c-0.31,0-0.58-0.11-0.8-0.32c-0.22-0.21-0.33-0.46-0.33-0.76c0-0.29,0.11-0.54,0.33-0.76
		c0.22-0.21,0.49-0.32,0.8-0.32c0.31,0,0.58,0.11,0.8,0.32c0.22,0.21,0.33,0.46,0.33,0.76c0,0.3-0.11,0.55-0.33,0.76
		C269.76,83.74,269.5,83.85,269.18,83.85z M268.13,92.51v-7.67h2.1v7.67H268.13z"/>
	<path d="M275.97,84.84v1.6h-4.67v-1.6H275.97z M272.37,92.51v-8.22c0-0.56,0.11-1.02,0.32-1.38c0.21-0.37,0.51-0.64,0.88-0.82
		c0.37-0.18,0.8-0.27,1.28-0.27c0.32,0,0.62,0.03,0.88,0.08s0.47,0.09,0.6,0.13l-0.37,1.6c-0.08-0.03-0.18-0.05-0.3-0.08
		s-0.24-0.04-0.37-0.04c-0.31,0-0.52,0.07-0.64,0.22c-0.12,0.14-0.18,0.35-0.18,0.61v8.18H272.37z"/>
	<path d="M278.3,83.85c-0.31,0-0.58-0.11-0.8-0.32c-0.22-0.21-0.33-0.46-0.33-0.76c0-0.29,0.11-0.54,0.33-0.76
		c0.22-0.21,0.49-0.32,0.8-0.32c0.31,0,0.58,0.11,0.8,0.32c0.22,0.21,0.33,0.46,0.33,0.76c0,0.3-0.11,0.55-0.33,0.76
		C278.88,83.74,278.62,83.85,278.3,83.85z M277.25,92.51v-7.67h2.1v7.67H277.25z"/>
	<path d="M284.47,92.66c-0.78,0-1.45-0.16-2.01-0.48s-0.99-0.78-1.29-1.37c-0.3-0.59-0.45-1.29-0.45-2.1c0-0.79,0.15-1.48,0.45-2.08
		c0.3-0.6,0.73-1.06,1.28-1.39c0.55-0.33,1.2-0.5,1.94-0.5c0.5,0,0.96,0.08,1.4,0.24s0.81,0.4,1.13,0.73
		c0.32,0.32,0.58,0.73,0.76,1.22c0.18,0.49,0.27,1.06,0.27,1.71v0.58h-6.39V87.9h4.41c0-0.31-0.07-0.58-0.2-0.81
		c-0.13-0.24-0.31-0.42-0.54-0.56s-0.5-0.2-0.8-0.2c-0.32,0-0.6,0.07-0.84,0.22c-0.25,0.15-0.44,0.35-0.57,0.59
		s-0.21,0.52-0.21,0.83v1.25c0,0.38,0.07,0.71,0.21,0.98s0.34,0.49,0.59,0.64c0.26,0.15,0.56,0.22,0.91,0.22
		c0.23,0,0.45-0.03,0.64-0.1c0.19-0.07,0.36-0.17,0.5-0.3c0.14-0.13,0.24-0.3,0.32-0.49l1.94,0.13c-0.1,0.47-0.3,0.88-0.6,1.24
		c-0.3,0.35-0.69,0.62-1.17,0.82C285.64,92.56,285.09,92.66,284.47,92.66z"/>
	<path d="M292.1,92.63c-0.57,0-1.09-0.15-1.56-0.45c-0.46-0.3-0.83-0.75-1.1-1.33c-0.27-0.59-0.41-1.31-0.41-2.16
		c0-0.88,0.14-1.61,0.42-2.19c0.28-0.58,0.65-1.02,1.12-1.31c0.46-0.29,0.97-0.44,1.53-0.44c0.42,0,0.78,0.07,1.06,0.22
		c0.28,0.15,0.51,0.33,0.69,0.54c0.18,0.21,0.31,0.42,0.4,0.63h0.06v-3.84h2.09v10.22h-2.07v-1.23h-0.09
		c-0.1,0.21-0.24,0.42-0.42,0.63c-0.18,0.21-0.41,0.38-0.69,0.52C292.85,92.56,292.5,92.63,292.1,92.63z M292.76,90.94
		c0.34,0,0.62-0.09,0.86-0.28c0.23-0.19,0.42-0.45,0.54-0.79c0.13-0.34,0.19-0.74,0.19-1.19s-0.06-0.85-0.19-1.19
		s-0.31-0.6-0.54-0.78c-0.24-0.18-0.52-0.27-0.86-0.27c-0.34,0-0.63,0.09-0.87,0.29c-0.24,0.19-0.42,0.45-0.54,0.79
		c-0.12,0.34-0.18,0.73-0.18,1.17c0,0.45,0.06,0.84,0.18,1.18c0.12,0.34,0.3,0.61,0.54,0.8S292.42,90.94,292.76,90.94z"/>
</g>
</svg>
